<svg width="90" height="46" viewBox="0 0 90 46" fill="none" xmlns="http://www.w3.org/2000/svg">
<g clip-path="url(#clip0)">
<path d="M40.6954 17.2988C39.589 17.2988 38.7284 17.6382 38.1137 18.317C37.7187 18.7613 37.4195 19.3087 37.216 19.9594C37.0352 20.5372 37.5122 21.076 38.1176 21.076H43.3352C43.9123 21.076 44.3837 20.5835 44.2421 20.024C44.0572 19.2937 43.7244 18.7083 43.2436 18.2678C42.5619 17.6218 41.7125 17.2988 40.6954 17.2988ZM40.6954 13.4395C42.2154 13.4395 43.5845 13.7187 44.8027 14.2771C46.021 14.8355 47.0268 15.7168 47.8204 16.9211C48.5356 17.9831 48.9995 19.2148 49.2118 20.6162C49.3072 21.2528 49.3589 22.1067 49.3668 23.1777C49.3709 23.7243 48.9238 24.1634 48.3771 24.1634H37.8944C37.3275 24.1634 36.8636 24.6372 36.9609 25.1957C37.1795 26.4506 37.7203 27.3655 38.5831 27.9406C39.2425 28.3895 40.036 28.6139 40.9637 28.6139C41.9472 28.6139 42.7463 28.3402 43.361 27.7928C43.5704 27.6082 43.7645 27.3788 43.9434 27.1045C44.152 26.7846 44.4917 26.5611 44.8736 26.5611H48.0056C48.6035 26.5611 49.0701 27.0892 48.8513 27.6455C48.5723 28.3553 48.1001 29.0722 47.4348 29.7963C45.8701 31.5371 43.6795 32.4075 40.8631 32.4075C38.5384 32.4075 36.4875 31.674 34.7105 30.2069C32.9334 28.7398 32.0449 26.3531 32.0449 23.0467C32.0449 19.9483 32.844 17.5725 34.4422 15.9193C36.0516 14.2661 38.136 13.4395 40.6954 13.4395Z" fill="url(#paint0_linear)"/>
<path d="M53.336 35.853C53.336 35.5247 53.6117 35.2636 53.9395 35.2815C54.4089 35.3033 54.856 35.2869 55.2807 35.2322C55.7054 35.1774 56.063 35.0515 56.3536 34.8545C56.633 34.6683 56.8901 34.2797 57.1248 33.6885C57.3707 33.0973 57.4713 32.736 57.4266 32.6046L51.2007 15.2535C50.9669 14.602 51.4498 13.9158 52.1419 13.9158H55.2926C55.7335 13.9158 56.1223 14.2045 56.2499 14.6265L59.0409 23.8626C59.3296 24.8178 60.6856 24.8075 60.9597 23.848L63.5899 14.6411C63.7125 14.2118 64.1049 13.9158 64.5514 13.9158H67.4591C68.1503 13.9158 68.6331 14.6002 68.4012 15.2513L62.6068 31.5207C61.3998 34.9147 60.4442 37.0168 59.7401 37.8269C59.036 38.6481 57.6277 39.0586 55.5154 39.0586C55.0907 39.0586 54.7498 39.0531 54.4928 39.0422C54.4277 39.0422 54.3544 39.0411 54.2729 39.039C53.7456 39.0254 53.336 38.5823 53.336 38.0549V35.853Z" fill="url(#paint1_linear)"/>
<path d="M81.6346 13.4888C81.7048 13.4888 81.7647 13.4922 81.8142 13.4989C81.8398 13.5024 81.8471 13.505 81.8729 13.5053C82.0863 13.508 82.2716 13.689 82.2716 13.9024V17.5095C82.2716 17.9406 81.8975 18.2715 81.4669 18.2513C81.2322 18.2404 81.0422 18.2349 80.8969 18.2349C78.9746 18.2349 77.6837 18.848 77.0243 20.0742C76.6555 20.764 76.4711 21.826 76.4711 23.2602V30.8163C76.4711 31.3686 76.0233 31.8163 75.4711 31.8163H72.6597C72.1074 31.8163 71.6597 31.3686 71.6597 30.8163V14.9158C71.6597 14.3635 72.1074 13.9158 72.6597 13.9158H75.5292C75.9105 13.9158 76.2196 14.2249 76.2196 14.6062C76.2196 15.3016 77.173 15.5832 77.6426 15.0703C77.8191 14.8776 77.9874 14.7172 78.1476 14.5891C79.0417 13.8556 80.204 13.4888 81.6346 13.4888Z" fill="url(#paint2_linear)"/>
<path d="M90 10.7809C90 11.3332 89.5523 11.7809 89 11.7809H86.155C85.6027 11.7809 85.155 11.3332 85.155 10.7809V8.46178C85.155 7.90949 85.6027 7.46178 86.155 7.46178H89C89.5523 7.46178 90 7.90949 90 8.46178V10.7809ZM85.155 14.9158C85.155 14.3635 85.6027 13.9158 86.155 13.9158H89C89.5523 13.9158 90 14.3635 90 14.9158V30.8163C90 31.3686 89.5523 31.8163 89 31.8163H86.155C85.6027 31.8163 85.155 31.3686 85.155 30.8163V14.9158Z" fill="url(#paint3_linear)"/>
<path d="M9.88826 32.1261C9.39996 32.1261 8.98795 31.9617 8.65224 31.6328C8.31653 31.2741 8.14868 30.8555 8.14868 30.3772V2.30467C8.14868 1.79643 8.31653 1.36294 8.65224 1.00418C8.98795 0.675325 9.39996 0.510895 9.88826 0.510895H13.0927C13.581 0.510895 13.993 0.675325 14.3288 1.00418C14.6645 1.36294 14.8323 1.79643 14.8323 2.30467V13.157H14.8781L23.8964 1.45263C24.3542 0.824806 24.9951 0.510895 25.8191 0.510895H29.4814C30.6106 0.510895 31.1752 1.06397 31.1752 2.17014C31.1752 2.499 31.0531 2.85775 30.809 3.2464L20.692 16.1616L30.8548 29.4803C31.0989 29.8092 31.221 30.153 31.221 30.5117C31.221 31.6179 30.6564 32.171 29.5272 32.171L25.7734 32.1261C24.9799 32.1261 24.3542 31.8122 23.8964 31.1844L15.0612 19.6594H14.8323V30.3772C14.8323 30.8555 14.6645 31.2741 14.3288 31.6328C13.993 31.9617 13.581 32.1261 13.0927 32.1261H9.88826Z" fill="url(#paint4_linear)"/>
<path d="M0 0.948443C0 0.700775 0.204957 0.5 0.457784 0.5H10.9868C11.2397 0.5 11.4446 0.700775 11.4446 0.948443V4.53599C11.4446 4.78366 11.2397 4.98443 10.9868 4.98443H0.457784C0.204957 4.98443 0 4.78366 0 4.53599V0.948443Z" fill="url(#paint5_linear)"/>
<path d="M0 7.91023C0 7.66256 0.204957 7.46178 0.457784 7.46178H10.9868C11.2397 7.46178 11.4446 7.66256 11.4446 7.91023V11.4978C11.4446 11.7454 11.2397 11.9462 10.9868 11.9462H0.457784C0.204957 11.9462 0 11.7454 0 11.4978V7.91023Z" fill="url(#paint6_linear)"/>
<path fill-rule="evenodd" clip-rule="evenodd" d="M11.4446 39.0156C13.3408 39.0156 14.878 37.5098 14.878 35.6522C14.878 33.7947 13.3408 32.2889 11.4446 32.2889C9.54837 32.2889 8.0112 33.7947 8.0112 35.6522C8.0112 37.5098 9.54837 39.0156 11.4446 39.0156ZM11.4446 43.5C15.8691 43.5 19.4558 39.9864 19.4558 35.6522C19.4558 31.318 15.8691 27.8045 11.4446 27.8045C7.0201 27.8045 3.43335 31.318 3.43335 35.6522C3.43335 39.9864 7.0201 43.5 11.4446 43.5Z" fill="url(#paint7_linear)"/>
</g>
<defs>
<linearGradient id="paint0_linear" x1="1.69559e-05" y1="0.499999" x2="95.4884" y2="5.62058" gradientUnits="userSpaceOnUse">
<stop offset="0.114583" stop-color="#FF2063"/>
<stop offset="0.5" stop-color="#BF299E"/>
<stop offset="0.90625" stop-color="#521BBC"/>
</linearGradient>
<linearGradient id="paint1_linear" x1="8.9832e-05" y1="0.500003" x2="95.4885" y2="5.62059" gradientUnits="userSpaceOnUse">
<stop offset="0.114583" stop-color="#FF2063"/>
<stop offset="0.5" stop-color="#BF299E"/>
<stop offset="0.90625" stop-color="#521BBC"/>
</linearGradient>
<linearGradient id="paint2_linear" x1="0.00016642" y1="0.499998" x2="95.4884" y2="5.62056" gradientUnits="userSpaceOnUse">
<stop offset="0.114583" stop-color="#FF2063"/>
<stop offset="0.5" stop-color="#BF299E"/>
<stop offset="0.90625" stop-color="#521BBC"/>
</linearGradient>
<linearGradient id="paint3_linear" x1="2.69368e-06" y1="0.500016" x2="95.4884" y2="5.6206" gradientUnits="userSpaceOnUse">
<stop offset="0.114583" stop-color="#FF2063"/>
<stop offset="0.5" stop-color="#BF299E"/>
<stop offset="0.90625" stop-color="#521BBC"/>
</linearGradient>
<linearGradient id="paint4_linear" x1="0.000121572" y1="0.500015" x2="95.4885" y2="5.62059" gradientUnits="userSpaceOnUse">
<stop offset="0.114583" stop-color="#FF2063"/>
<stop offset="0.5" stop-color="#BF299E"/>
<stop offset="0.90625" stop-color="#521BBC"/>
</linearGradient>
<linearGradient id="paint5_linear" x1="0" y1="0.5" x2="95.4884" y2="5.62058" gradientUnits="userSpaceOnUse">
<stop offset="0.114583" stop-color="#FF2063"/>
<stop offset="0.5" stop-color="#BF299E"/>
<stop offset="0.90625" stop-color="#521BBC"/>
</linearGradient>
<linearGradient id="paint6_linear" x1="3.9686e-08" y1="0.500018" x2="95.4884" y2="5.6206" gradientUnits="userSpaceOnUse">
<stop offset="0.114583" stop-color="#FF2063"/>
<stop offset="0.5" stop-color="#BF299E"/>
<stop offset="0.90625" stop-color="#521BBC"/>
</linearGradient>
<linearGradient id="paint7_linear" x1="-3.03243e-05" y1="-1.49998" x2="95.4884" y2="3.6206" gradientUnits="userSpaceOnUse">
<stop offset="0.114583" stop-color="#FF2063"/>
<stop offset="0.5" stop-color="#BF299E"/>
<stop offset="0.90625" stop-color="#521BBC"/>
</linearGradient>
<clipPath id="clip0">
<rect width="90" height="45" fill="white" transform="translate(0 0.5)"/>
</clipPath>
</defs>
</svg>
